HIERARCHY
ROOT root
{
	OFFSET	0	13.1	24.9
	CHANNELS 6  Xposition Yposition Zposition Xrotation Yrotation Zrotation
	JOINT spine_1
	{
		OFFSET	0	9.99999	0
		CHANNELS 3  Xrotation Yrotation Zrotation
		JOINT spine_2
		{
			OFFSET	0	112	-10
			CHANNELS 3  Xrotation Yrotation Zrotation
			JOINT spine_3
			{
				OFFSET	0	206.5	19.3
				CHANNELS 3  Xrotation Yrotation Zrotation
				JOINT spine_4
				{
					OFFSET	0	110.4	14.6
					CHANNELS 3  Xrotation Yrotation Zrotation
					JOINT neck_1
					{
						OFFSET	0	71.8	-50.3
						CHANNELS 3  Xrotation Yrotation Zrotation
						JOINT neck_2
						{
							OFFSET	0	86.2	-25.8
							CHANNELS 3  Xrotation Yrotation Zrotation
							JOINT head_ee
							{
								OFFSET	0	179.8	-8.7
								CHANNELS 3  Xrotation Yrotation Zrotation
								End Site
								{
									OFFSET	1	0	0
								}
							}
						}
					}
					JOINT left_clavicle
					{
						OFFSET	-43.2	22.4	-70.8
						CHANNELS 3  Xrotation Yrotation Zrotation
						JOINT left_shoulder
						{
							OFFSET	-93.9	-5.79999	48.7
							CHANNELS 3  Xrotation Yrotation Zrotation
							JOINT left_elbow
							{
								OFFSET	-291.4	-30.8	15.2
								CHANNELS 3  Xrotation Yrotation Zrotation
								JOINT left_lowarm_twist
								{
									OFFSET	-110.7	-3.89999	13.6
									CHANNELS 3  Xrotation Yrotation Zrotation
									JOINT left_hand
									{
										OFFSET	-110.7	-3.89999	13.6
										CHANNELS 3  Xrotation Yrotation Zrotation
										JOINT left_ee
										{
											OFFSET	-80.8	-5.10001	12.1
											CHANNELS 3  Xrotation Yrotation Zrotation
											End Site
											{
												OFFSET	1	0	0
											}
										}
									}
								}
							}
						}
					}
					JOINT right_clavicle
					{
						OFFSET	43.2	22.4	-70.8
						CHANNELS 3  Xrotation Yrotation Zrotation
						JOINT right_shoulder
						{
							OFFSET	93.9	-5.79999	48.7
							CHANNELS 3  Xrotation Yrotation Zrotation
							JOINT right_elbow
							{
								OFFSET	291.4	-30.8	15.2
								CHANNELS 3  Xrotation Yrotation Zrotation
								JOINT right_lowarm_twist
								{
									OFFSET	110.7	-3.89999	13.6
									CHANNELS 3  Xrotation Yrotation Zrotation
									JOINT right_hand
									{
										OFFSET	110.7	-3.89999	13.6
										CHANNELS 3  Xrotation Yrotation Zrotation
										JOINT right_ee
										{
											OFFSET	80.8	-5.10001	12.1
											CHANNELS 3  Xrotation Yrotation Zrotation
											End Site
											{
												OFFSET	1	0	0
											}
										}
									}
								}
							}
						}
					}
				}
			}
		}
	}
	JOINT left_hip
	{
		OFFSET	-82.8	-127.5	0.300001
		CHANNELS 3  Xrotation Yrotation Zrotation
		JOINT left_knee
		{
			OFFSET	-28.2	-396.7	2.2
			CHANNELS 3  Xrotation Yrotation Zrotation
			JOINT left_ankle
			{
				OFFSET	-11.7	-411.3	35.4
				CHANNELS 3  Xrotation Yrotation Zrotation
				JOINT left_toes
				{
					OFFSET	0	-60	-88.6
					CHANNELS 3  Xrotation Yrotation Zrotation
					JOINT left_foot_ee
					{
						OFFSET	-22.5	-16.5	-42.2
						CHANNELS 3  Xrotation Yrotation Zrotation
						End Site
						{
							OFFSET	1	0	0
						}
					}
				}
			}
		}
	}
	JOINT right_hip
	{
		OFFSET	82.8	-127.5	0.300001
		CHANNELS 3  Xrotation Yrotation Zrotation
		JOINT right_knee
		{
			OFFSET	28.2	-396.7	2.2
			CHANNELS 3  Xrotation Yrotation Zrotation
			JOINT right_ankle
			{
				OFFSET	11.7	-411.3	35.4
				CHANNELS 3  Xrotation Yrotation Zrotation
				JOINT right_toes
				{
					OFFSET	0	-60	-88.6
					CHANNELS 3  Xrotation Yrotation Zrotation
					JOINT right_foot_ee
					{
						OFFSET	22.5	-16.5	-42.2
						CHANNELS 3  Xrotation Yrotation Zrotation
						End Site
						{
							OFFSET	1	0	0
						}
					}
				}
			}
		}
	}
}
MOTION
Frames: 16
Frame Time: 0.02
1017.85 652.02 -1191.68 -169.584 -72.6252 -178.552 -0.94349 0.774328 3.42247 -0.937145 0.555113 3.46474 -0.898012 -0.240331 3.50064 -0.914972 0.315199 3.4947 6.43581 0.454555 2.02361 6.45053 -1.02775 2.37173 -0.0 0.0 -0.0 3.3901 14.0772 7.17941 29.7058 50.694 50.4678 0.277571 -7.82928 0.0189941 35.8619 -0.151703 -4.5047 -1.12763 13.3536 -1.58616 -0.0 0.0 -0.0 7.44912 29.0208 -12.8837 14.5563 -14.8761 -64.9919 1.48567 36.3492 -0.487757 58.6444 1.65474 6.98148 6.79645 24.8411 -35.3474 0.0 0.0 0.0 45.0655 -43.077 20.0689 -10.8552 0.292538 1.63775 -3.48686 2.34448 0.517214 -37.5994 0.0 0.0 -0.0 0.0 -0.0 -6.85783 -13.3967 11.8093 -11.5768 -0.300913 -1.74816 33.3307 10.5339 4.40955 31.8774 -0.0 -0.0 0.0 0.0 0.0 
1053.31 658.704 -1183.92 -171.604 -71.6475 -179.566 -0.87063 0.781267 3.26236 -0.864891 0.572208 3.3054 -0.82687 -0.183521 3.34949 -0.842356 0.34747 3.33648 6.54543 0.416692 2.12197 6.56224 -1.18206 2.48792 -0.0 0.0 -0.0 4.16139 13.9017 8.4436 31.4137 50.2787 50.4384 0.308071 -8.67712 0.0233725 35.2312 -0.12473 -4.42871 -0.37778 10.1942 1.80112 -0.0 0.0 -0.0 8.01939 28.6791 -14.1749 12.323 -16.8898 -65.782 1.28887 32.5555 -0.376364 55.9481 1.42677 6.72183 6.78505 25.8019 -34.512 0.0 0.0 0.0 43.8182 -44.099 20.0769 -13.7346 0.317655 2.07879 -2.57951 3.75104 0.380993 -37.9297 0.0 0.0 -0.0 0.0 -0.0 -7.40744 -11.0248 11.465 -15.6927 -0.322062 -2.37917 31.3057 7.17722 4.13412 32.5739 -0.0 -0.0 0.0 0.0 0.0 
1073.17 665.029 -1176.02 -171.768 -70.0846 -179.129 -0.749766 0.752229 3.32198 -0.743789 0.539442 3.36304 -0.70722 -0.221344 3.39879 -0.723197 0.317894 3.39113 8.15975 0.100897 1.31865 8.16771 -1.02296 1.57115 -0.0 0.0 -0.0 4.73752 13.724 9.39659 34.1088 49.9007 50.2173 0.351421 -9.8755 0.0303608 34.6726 -0.101542 -4.36118 0.106635 6.72619 3.50068 -0.0 0.0 -0.0 9.58102 28.13 -17.6907 11.4267 -18.3244 -64.656 1.1821 30.3512 -0.320639 54.7872 1.33244 6.60682 6.65995 26.0056 -33.4166 0.0 0.0 0.0 42.5391 -44.9085 19.0983 -15.4758 0.32208 2.34589 0.870373 3.00856 -0.127664 -36.9261 0.0 0.0 -0.0 0.0 -0.0 -7.12343 -11.3726 11.2036 -16.6473 -0.320489 -2.52562 32.3297 3.00192 4.18178 33.1807 -0.0 -0.0 0.0 0.0 0.0 
1099.36 671.377 -1167.89 -173.463 -69.7429 179.699 -0.589461 0.620947 3.24586 -0.583696 0.41326 3.27875 -0.55582 -0.317127 3.28943 -0.570859 0.206065 3.29824 6.24595 0.637772 1.11674 6.24908 0.0918996 1.32078 -0.0 0.0 -0.0 4.94438 12.6754 9.74592 36.0981 49.4827 50.7976 0.341189 -9.59338 0.0286307 34.1634 -0.0809809 -4.29942 0.286488 4.51584 3.7778 -0.0 0.0 -0.0 9.61099 27.7564 -17.8008 9.20041 -18.8268 -66.0461 1.00552 26.4776 -0.236567 54.5219 1.31121 6.58027 6.62542 26.345 -32.9 0.0 0.0 0.0 40.4596 -43.0842 18.2684 -17.9455 0.314434 2.72471 1.27571 2.27683 -0.187163 -36.5633 0.0 0.0 -0.0 0.0 -0.0 -7.04734 -12.0077 11.453 -17.2083 -0.318426 -2.61167 29.859 3.85335 3.93243 32.8639 -0.0 -0.0 0.0 0.0 0.0 
1124.47 675.614 -1166.53 -176.287 -69.1043 177.23 -0.780182 0.41365 3.21285 -0.774464 0.208479 3.23263 -0.758623 -0.51841 3.19763 -0.77289 -0.00717349 3.23933 5.07258 0.00931479 0.632092 5.07436 -0.53717 0.723396 -0.0 0.0 -0.0 5.20623 12.4682 10.1908 38.3493 50.0327 50.9059 0.318391 -8.96313 0.0249549 34.4474 -0.0923836 -4.33389 0.392086 2.64194 3.70956 -0.0 0.0 -0.0 9.79932 27.5977 -18.2385 8.32138 -20.3562 -66.4945 0.87722 23.4871 -0.182362 52.5275 1.15564 6.37763 6.11848 25.0559 -30.1294 0.0 0.0 0.0 37.9514 -42.7587 18.5805 -18.8509 0.307542 2.86345 2.52727 4.88628 -0.368161 -36.1117 0.0 0.0 -0.0 0.0 -0.0 -4.67154 -6.29607 12.135 -25.9599 -0.17749 -3.94589 28.8281 -4.74123 3.76281 33.4693 -0.0 -0.0 0.0 0.0 0.0 
1138.03 680.359 -1165.56 -178.903 -68.3009 174.14 -0.932606 0.418862 3.38651 -0.926249 0.202649 3.40627 -0.909451 -0.571801 3.36409 -0.92524 -0.0336514 3.41212 3.58999 0.805433 1.40952 3.59508 0.184922 1.63478 -0.0 0.0 -0.0 5.5658 9.61174 10.8398 40.9893 49.4108 50.8132 0.317309 -8.93318 0.0247867 35.201 -0.12346 -4.42507 0.387571 0.586064 2.83209 -0.0 0.0 -0.0 10.7013 27.1634 -20.3072 8.682 -21.7164 -65.0377 0.707974 19.3263 -0.120549 50.4686 1.00256 6.16294 5.21323 24.2913 -24.1823 0.0 0.0 0.0 31.4363 -41.0354 16.0897 -11.5692 0.300832 1.74698 -0.961256 4.60562 0.141305 -35.695 0.0 0.0 -0.0 0.0 -0.0 -3.32982 -1.72308 12.7241 -32.0674 0.0406559 -4.85737 27.6603 -10.62 3.64274 34.5472 -0.0 -0.0 0.0 0.0 0.0 
1162.68 683.115 -1159.19 178.685 -66.465 171.654 -0.831968 0.485504 3.45879 -0.825352 0.264565 3.48263 -0.804373 -0.522312 3.45343 -0.821012 0.0293017 3.49253 2.21203 1.65869 1.56899 2.21884 1.5826 1.86474 -0.0 0.0 -0.0 5.7789 9.85484 11.2141 43.765 49.1509 49.935 0.260154 -7.34355 0.0166947 34.4864 -0.0939618 -4.33862 0.606404 -1.30662 3.51294 -0.0 0.0 -0.0 10.9774 27.089 -20.9372 6.94085 -24.0939 -65.5164 0.549643 15.2313 -0.0734914 50.1777 0.981559 6.13217 3.98735 19.5844 -18.3788 0.0 0.0 0.0 26.4622 -37.5832 14.7593 -9.06739 0.265801 1.36473 -1.79892 4.24328 0.265066 -35.3723 0.0 0.0 -0.0 0.0 -0.0 -2.53047 2.78922 13.0198 -37.6176 0.322201 -5.66186 23.4755 -14.0454 3.17733 35.6637 -0.0 -0.0 0.0 0.0 0.0 
1194.54 688.082 -1151.15 173.281 -63.6096 166.622 -1.40115 0.652313 3.46899 -1.39456 0.430389 3.50341 -1.36193 -0.39925 3.50709 -1.37906 0.159284 3.52612 2.28436 1.75096 1.77057 2.29269 1.5709 2.09492 -0.0 0.0 -0.0 6.27005 8.30579 12.1188 41.897 45.0241 51.3551 0.248599 -7.02072 0.0152501 34.3746 -0.0894432 -4.32506 0.630002 -0.695216 3.92435 -0.0 0.0 -0.0 11.1432 26.2452 -21.4075 4.3575 -25.4008 -65.834 0.488391 13.6007 -0.0582405 50.7034 1.01963 6.1877 2.82942 15.3771 -12.5204 0.0 0.0 0.0 19.9878 -33.4265 13.9973 -8.02828 0.246351 1.20647 0.354567 5.57059 -0.0519072 -34.8781 0.0 0.0 -0.0 0.0 -0.0 2.25712 6.56979 15.3036 -48.3183 1.07888 -7.12082 21.5691 -12.3629 2.93621 34.1268 -0.0 -0.0 0.0 0.0 0.0 
1227.85 689.999 -1145.06 167.421 -55.183 159.129 -3.48629 1.04944 4.82845 -3.47363 0.740439 4.88526 -3.39034 -0.594504 4.90511 -3.42385 0.186651 4.9374 6.70949 3.34 0.608562 6.74069 5.10146 0.822536 -0.0 0.0 -0.0 4.36364 -8.06066 7.98842 11.0849 14.1446 61.6045 1.12915 -29.2195 0.294336 41.1401 -0.409887 -5.12808 -0.569373 21.4176 5.24507 -0.0 0.0 -0.0 12.1454 27.1167 -23.5819 1.83048 -26.2436 -67.2245 0.876764 23.4762 -0.18218 52.844 1.17985 6.41014 -1.2272 -2.5365 7.08571 0.0 0.0 0.0 12.5042 -24.2606 15.957 -11.1913 0.296611 1.68915 8.6231 21.061 -1.26421 -34.1575 0.0 0.0 -0.0 0.0 -0.0 13.9519 7.93272 20.6494 -69.0301 3.24979 -9.4403 14.5155 -2.47547 2.03699 20.4509 -0.0 -0.0 0.0 0.0 0.0 
1241.28 694.005 -1142.71 167.548 -54.5676 159.47 -3.62282 1.07405 4.85628 -3.61003 0.763236 4.91459 -3.52359 -0.591847 4.93811 -3.55755 0.194466 4.96957 7.79885 2.75796 -0.654994 7.84313 5.20368 -0.710587 -0.0 0.0 -0.0 4.87462 -8.76744 9.00046 13.2267 12.7256 60.0678 1.12701 -29.1732 0.293292 42.101 -0.463032 -5.23892 -0.950284 24.0347 4.11732 -0.0 0.0 -0.0 12.785 27.2483 -25.0299 0.0806618 -30.0415 -66.4079 0.982174 25.9443 -0.226255 51.1084 1.0493 6.23024 -0.908288 -2.19477 5.11064 0.0 0.0 0.0 11.9342 -24.0071 15.9732 -11.8818 0.304035 1.79485 8.78519 24.9846 -1.31125 -34.2632 0.0 0.0 -0.0 0.0 -0.0 16.1384 6.75671 21.3214 -69.6999 3.33324 -9.50145 14.0743 0.0683932 1.98847 20.4493 -0.0 -0.0 0.0 0.0 0.0 
1265.13 695.673 -1138.1 169.37 -53.6759 161.615 -3.11792 0.805255 4.61062 -3.10624 0.510563 4.65239 -3.04836 -0.726579 4.62365 -3.07818 0.0119263 4.68025 8.09082 3.57503 -0.070636 8.14371 6.02947 -0.00873316 -0.0 0.0 -0.0 4.57866 -10.776 8.25605 16.1865 13.4562 60.2129 1.29611 -32.7012 0.380267 44.9681 -0.63257 -5.56418 -1.37712 24.9106 2.07562 -0.0 0.0 -0.0 12.6462 26.5585 -24.7956 -2.64205 -29.6742 -66.4847 0.89779 23.9763 -0.190641 50.5 1.00483 6.16625 -0.310664 -0.403474 1.90263 0.0 0.0 0.0 10.6788 -23.5969 15.7572 -11.2508 0.297301 1.69826 9.69152 26.7172 -1.45671 -32.7922 0.0 0.0 -0.0 0.0 -0.0 18.5416 4.7286 22.5191 -68.4154 3.17385 -9.38333 13.4048 3.23362 1.91627 20.4695 -0.0 -0.0 0.0 0.0 0.0 
1282.53 695.75 -1132.02 169.683 -52.0149 162.335 -2.9371 0.745643 4.48046 -2.92605 0.459327 4.51872 -2.87499 -0.727455 4.48344 -2.90303 -0.0110099 4.54194 7.82067 4.12618 0.130515 7.88464 6.78549 0.250161 -0.0 0.0 -0.0 4.35928 -12.1148 7.70135 18.8539 13.2659 59.0643 1.361 -33.986 0.415935 47.4919 -0.795162 -5.84326 -1.90091 27.4675 0.3467 -0.0 0.0 -0.0 12.3985 25.6449 -24.3329 -4.83189 -27.4565 -66.9358 0.80594 21.7637 -0.154937 50.3374 0.993068 6.14908 -0.0929065 0.937152 1.01732 0.0 0.0 0.0 8.30329 -21.2617 15.2127 -11.2334 0.297101 1.6956 12.014 26.5487 -1.79078 -30.8129 0.0 0.0 -0.0 0.0 -0.0 22.5435 3.06605 21.7435 -67.0463 3.00693 -9.25356 14.301 6.39363 2.0616 20.5615 -0.0 -0.0 0.0 0.0 0.0 
1297.71 695.608 -1127.69 170.356 -50.0034 163.007 -2.88006 0.815572 4.29614 -2.86996 0.540808 4.33922 -2.81515 -0.597354 4.33181 -2.84132 0.0935937 4.37173 8.13032 4.79725 0.898466 8.19736 7.19241 1.16704 -0.0 0.0 -0.0 4.04657 -12.7266 6.99716 20.4624 14.5809 58.6621 1.45879 -35.8513 0.471922 48.5297 -0.865576 -5.95592 -1.98185 26.8794 -0.378996 -0.0 0.0 -0.0 12.0671 24.7231 -23.6734 -6.85493 -26.5073 -67.4444 0.785206 21.2544 -0.147335 49.9344 0.964115 6.10636 0.0214309 2.12322 0.753351 0.0 0.0 0.0 7.09454 -18.8997 15.1382 -11.7944 0.303165 1.78146 12.6621 26.6931 -1.88496 -29.864 0.0 0.0 -0.0 0.0 -0.0 25.7523 2.93787 20.1494 -66.5194 2.94354 -9.20257 13.9251 8.67546 2.03237 19.8776 -0.0 -0.0 0.0 0.0 0.0 
1316.28 696.801 -1123.15 170.072 -48.5292 163.244 -3.03576 0.695622 4.01019 -3.02692 0.439248 4.04625 -2.98368 -0.631797 4.02073 -3.00623 0.0105842 4.06997 7.93708 5.68479 1.25857 8.02578 8.36821 1.61714 -0.0 0.0 -0.0 3.74961 -13.7793 6.28646 20.9473 15.0324 58.3145 1.5256 -37.0773 0.51163 50.09 -0.975259 -6.12288 -2.05064 26.7594 -0.815878 -0.0 0.0 -0.0 11.394 24.0308 -22.2081 -7.66601 -27.0003 -67.8463 0.748769 20.3507 -0.134394 49.9231 0.963308 6.10516 0.121603 2.77022 0.354366 0.0 0.0 0.0 5.44703 -18.2432 14.9783 -12.4221 0.308954 1.87759 12.8702 27.4228 -1.92318 -29.0979 0.0 0.0 -0.0 0.0 -0.0 26.9872 1.98907 18.8181 -65.4509 2.81644 -9.09741 12.2949 9.0021 1.80979 19.8909 -0.0 -0.0 0.0 0.0 0.0 
1338.29 696.699 -1113.98 170.824 -47.7475 163.981 -2.81329 0.601512 4.00166 -2.80445 0.345869 4.03175 -2.76877 -0.703404 3.98503 -2.79092 -0.0657519 4.046 7.34834 5.72057 1.06081 7.44209 8.66313 1.40232 -0.0 0.0 -0.0 3.11118 -12.7014 5.03206 20.742 14.6903 58.3405 1.81827 -42.0059 0.698125 51.8849 -1.10703 -6.31121 -2.25609 28.599 -1.02623 -0.0 0.0 -0.0 11.1436 20.5989 -21.9362 -9.67835 -25.649 -67.6135 0.7207 19.6473 -0.124794 47.7358 0.811525 5.86985 0.282512 5.9219 0.605141 0.0 0.0 0.0 3.82464 -16.803 15.119 -12.5904 0.310328 1.90339 16.0439 26.836 -2.36231 -27.6966 0.0 0.0 -0.0 0.0 -0.0 28.884 1.12755 18.3294 -65.2757 2.79578 -9.07993 11.9456 9.83957 1.76882 20.1537 -0.0 -0.0 0.0 0.0 0.0 
1356.36 694.702 -1105.61 169.893 -47.3996 163.054 -2.7139 0.701648 3.9766 -2.70521 0.447394 4.01311 -2.66257 -0.592836 3.99425 -2.68483 0.0448863 4.03768 5.52418 5.58015 0.53542 5.61979 9.05804 0.859418 -0.0 0.0 -0.0 3.32121 -13.8469 5.37577 20.2085 16.0806 57.1505 2.43735 -50.3597 1.14602 53.5184 -1.23205 -6.47898 -2.44743 28.6942 -2.0074 -0.0 0.0 -0.0 10.4606 18.1641 -20.5587 -14.696 -20.0038 -68.8393 0.834049 22.4485 -0.165516 49.2961 0.91888 6.0383 0.0607687 7.18652 2.64001 0.0 0.0 0.0 0.253301 -16.9358 15.4545 -10.7307 0.290952 1.61871 19.5683 24.5126 -2.80424 -27.1845 0.0 0.0 -0.0 0.0 -0.0 32.17 3.05896 14.6144 -63.2455 2.56044 -8.873 7.99213 8.77532 1.19452 18.6359 -0.0 -0.0 0.0 0.0 0.0 
